<svg id="Layer_1" data-name="Layer 1" xmlns="http://www.w3.org/2000/svg" width="254" height="31.28" viewBox="0 0 254 31.28"><defs><style>.cls-1{fill:#050505;}.cls-2{fill:#ff6161;}</style></defs><title>title</title><path class="cls-1" d="M204.58,42.4v1.14h-9.1V42.41l1-.2a1,1,0,0,0,.88-.92,6.74,6.74,0,0,0,.08-.85q0-4.08,0-8.17a4.24,4.24,0,0,0-.07-.74,2.67,2.67,0,0,0-3.81-2.26l-.37.15a1.8,1.8,0,0,0-1.32,2c.1,2.78,0,5.56,0,8.34,0,.11,0,.23,0,.34,0,1.7.12,1.85,1.74,2.32v1.14h-9.43V42.42c.48-.08,1-.15,1.44-.26a1.14,1.14,0,0,0,1-1,9,9,0,0,0,.08-1q0-4.68,0-9.37a6.35,6.35,0,0,0,0-.68,1.31,1.31,0,0,0-1.15-1.36c-.84-.24-.84-.24-.76-1.13l7.06-1.42v2.67c.62-.41,1.15-.78,1.69-1.12a9,9,0,0,1,3.46-1.55,4.74,4.74,0,0,1,5,2.44l.22.37c.91-.58,1.8-1.17,2.7-1.73a6,6,0,0,1,4-1.12,4.58,4.58,0,0,1,4.33,4.2,12.42,12.42,0,0,1,.13,1.76c0,2.63,0,5.25,0,7.88,0,.19,0,.38,0,.57.1,1.31.33,1.55,1.63,1.76.63.1.64.13.52,1.24h-9.24V42.41a1.75,1.75,0,0,1,.23-.06c1.47-.18,1.63-.57,1.66-2,.05-2.66,0-5.33,0-8a5.25,5.25,0,0,0-.13-1.07,2.59,2.59,0,0,0-3.48-2.08,3.89,3.89,0,0,0-.59.2c-1.23.52-1.33.73-1.32,2.05,0,2.72,0,5.44,0,8.17,0,.44,0,.87.05,1.31.06.87.37,1.2,1.25,1.36Z" transform="translate(-20 -16.15)"/><path class="cls-1" d="M248.25,26.07c0-.45,0-1.05,0-1.66,0-1.08,0-2.17,0-3.25s-.31-1.44-1.41-1.64l-1.08-.17v-1L253.46,17V38.86q0,.2,0,.4c0,1.66.15,1.83,1.82,2l.71.1c0,.2,0,.38,0,.57s0,.38,0,.56L248.27,44V42c-.7.43-1.33.75-1.89,1.16a4.69,4.69,0,0,1-4.19.63,8.14,8.14,0,0,1-6.1-7.52,9.67,9.67,0,0,1,8.35-10A34.9,34.9,0,0,1,248.25,26.07Zm0,9.12q0-2.51,0-5A2.55,2.55,0,0,0,245,27.84a3.89,3.89,0,0,0-2.31,2.31,11.21,11.21,0,0,0-.63,6.32,6.44,6.44,0,0,0,1.57,3.36,3.72,3.72,0,0,0,4.18,1.11.66.66,0,0,0,.48-.72C248.24,38.54,248.25,36.87,248.25,35.19Z" transform="translate(-20 -16.15)"/><path class="cls-1" d="M224.95,44.05c-5.34.15-9.15-3.26-9.34-8.28a8.93,8.93,0,0,1,8.86-9.67,8.44,8.44,0,0,1,9.23,8C234.05,40.3,230,44,224.95,44.05Zm3.15-8c-.16-1.47-.24-2.78-.45-4.07A6.2,6.2,0,0,0,226,28.27a2.09,2.09,0,0,0-3.35.28,4.92,4.92,0,0,0-.77,1.58,16.65,16.65,0,0,0,.46,10,4,4,0,0,0,1.46,2,2.14,2.14,0,0,0,3.13-.61,4.18,4.18,0,0,0,.62-1.45C227.78,38.69,227.93,37.27,228.1,36Z" transform="translate(-20 -16.15)"/><path class="cls-1" d="M273.72,40.79a4.86,4.86,0,0,1,.28.87.56.56,0,0,1-.22.46c-1.3.63-2.59,1.3-3.93,1.81a2.57,2.57,0,0,1-1.54-.12,3.51,3.51,0,0,1-2-1.81c-.79.47-1.58.92-2.34,1.41-2.55,1.67-6.31-.25-7.08-3a3.66,3.66,0,0,1,2.1-4.71c1.5-.65,3.07-1.11,4.6-1.69.73-.28,1.43-.62,2.13-1,.14-.07.33-.27.32-.4a17.22,17.22,0,0,0-.26-3.05A2,2,0,0,0,263.31,28a2.47,2.47,0,0,0-1.24,1,8.38,8.38,0,0,0-.81,2.05c-.36,1.23-1,1.67-2.25,1.32a4.39,4.39,0,0,1-1.5-.77,1.25,1.25,0,0,1-.11-2,3.11,3.11,0,0,1,.59-.53,17.76,17.76,0,0,1,6.91-3,5.32,5.32,0,0,1,6.16,4.94c.08,2.49,0,5,0,7.48a6.91,6.91,0,0,0,.11,1.25A1.3,1.3,0,0,0,272.9,41Zm-7.67-6.36c-1,.56-1.9,1.06-2.79,1.59a2.83,2.83,0,0,0-.06,4.61,2.28,2.28,0,0,0,2.15.36.89.89,0,0,0,.71-1c-.06-.91,0-1.82,0-2.73Z" transform="translate(-20 -16.15)"/><path class="cls-1" d="M176.7,37.38c-1.39,1.44-2.77,3-4.27,4.4a12.24,12.24,0,0,1-2.68,1.91c-1.79.95-3,.38-3.55-1.56a9.82,9.82,0,0,1-.09-4.8c1-5.11,3.79-8.75,8.79-10.53a9.38,9.38,0,0,1,5.28-.22c.26.06.52.12.78.16.77.12.75.11.58.91q-1.32,6.25-2.6,12.5a3.45,3.45,0,0,0,.09,1,4,4,0,0,0,.86-.35c.68-.48,1.33-1,2-1.52.58.8.58.81-.09,1.54a12.58,12.58,0,0,1-4,3c-1.48.69-2.15.3-2-1.31s.47-2.92.73-4.38C176.6,37.84,176.67,37.54,176.7,37.38Zm1.9-8.87a6.39,6.39,0,0,0-3.45-.47,5.18,5.18,0,0,0-3.56,2.54,14.92,14.92,0,0,0-2.45,8,8.22,8.22,0,0,0,.25,2.3c.21.83.68,1,1.43.56a6.25,6.25,0,0,0,1-.67,24.22,24.22,0,0,0,5.07-5.91,6.21,6.21,0,0,0,.67-1.74C177.93,31.59,178.25,30.07,178.61,28.52Z" transform="translate(-20 -16.15)"/><path class="cls-1" d="M163.93,39.21a1.9,1.9,0,0,1,.33.5.71.71,0,0,1,0,.57,13.94,13.94,0,0,1-4.45,3.5c-1.56.74-2.31.32-2.18-1.38a41.42,41.42,0,0,1,.81-5.05c1.2-5.81,2.44-11.6,3.66-17.4.22-1,0-1.36-1.07-1.44-.53,0-1.06-.06-1.58-.09-.08-.89,0-.87.77-1,1.44-.32,2.88-.69,4.3-1.08,1-.28,1.19-.16,1,.86q-1.35,6.44-2.72,12.88c-.72,3.4-1.44,6.8-2.14,10.21a3.44,3.44,0,0,0,.08,1,3.53,3.53,0,0,0,.88-.3C162.35,40.38,163.11,39.8,163.93,39.21Z" transform="translate(-20 -16.15)"/><path class="cls-2" d="M32.81,39.49a11,11,0,0,1-.53,3.77,13.53,13.53,0,0,1-4.62.77c-5.07,0-8.17-2.73-7.59-8.44s4.51-8.7,9.08-8.7a9.17,9.17,0,0,1,5.33,1.46,12.18,12.18,0,0,1-1.22,3.37H32l-.42-3.5a3.62,3.62,0,0,0-1.67-.34c-3,0-5.49,3.34-5.92,7.77-.45,4.7,1.46,7.43,4.27,7.43a4.52,4.52,0,0,0,1.35-.24l1.72-3.34Z" transform="translate(-20 -16.15)"/><path class="cls-2" d="M36.57,28.38l-.74-.21.19-.88h6.21l-.16.88-.66.24c-.4.16-.61.24-.66.72l-.58,5.78,5.94-5.81c.45-.45.4-.69.08-.74L45,28.16l.16-.88h4.64l-.16.88-1.17.27a2.75,2.75,0,0,0-1.14.85L43.55,33l3.79,8.15a2.47,2.47,0,0,0,1.75,1.62l-.16.88H44.05L40.53,36l-.5.5-.53,5.33c-.05.48.16.58.53.72l.69.24-.16.88H34.34l.16-.88.66-.21c.4-.13.61-.27.66-.74l1.25-12.68A.58.58,0,0,0,36.57,28.38Z" transform="translate(-20 -16.15)"/><path class="cls-2" d="M51.83,28.38l-.74-.21.19-.88h6.21l-.16.88-.66.24c-.4.16-.61.24-.66.72l-1.17,11.7,6.58-13.53h4.94l-.16.88-.64.24c-.4.16-.64.24-.69.72L63.61,41.8c0,.48.19.58.53.72l.72.24-.16.88H58.46l.19-.88.66-.21c.37-.13.61-.27.66-.74L61.14,30,54.56,43.63h-5l.16-.88.66-.21c.4-.13.61-.27.66-.74l1.25-12.68A.58.58,0,0,0,51.83,28.38Z" transform="translate(-20 -16.15)"/><path class="cls-2" d="M67.9,42.57a40.91,40.91,0,0,0,4-12.95c.08-.74-.11-.88-.74-1.09l-1.25-.37.19-.88H81.57l-.19.85-.48.19c-.56.21-.8.29-.85.82L78.7,42.57h1a20.1,20.1,0,0,1-.37,4.86h-.85l-.32-2.57c-.11-.9-.29-1.22-1-1.22h-8.6c-.69,0-.9.24-1.22,1.11l-.85,2.68h-.85a22.33,22.33,0,0,1,.58-4.86Zm1.09,0h5.94l1.43-14.22H73.08A48.27,48.27,0,0,1,69,42.57Z" transform="translate(-20 -16.15)"/><path class="cls-2" d="M84.09,28.38l-.74-.21.19-.88h6.21l-.16.88-.66.24c-.4.16-.61.24-.66.72l-.58,5.78,5.94-5.81c.45-.45.4-.69.08-.74l-1.17-.19.16-.88h4.64l-.16.88L96,28.43a2.75,2.75,0,0,0-1.14.85L91.06,33l3.79,8.15a2.47,2.47,0,0,0,1.75,1.62l-.16.88H91.57L88,36l-.5.5L87,41.8c-.05.48.16.58.53.72l.69.24-.16.88H81.86l.16-.88.66-.21c.4-.13.61-.27.66-.74l1.25-12.68A.58.58,0,0,0,84.09,28.38Z" transform="translate(-20 -16.15)"/><path class="cls-2" d="M99.34,28.38l-.74-.21.19-.88H105l-.16.88-.66.24c-.4.16-.61.24-.66.72l-1.17,11.7,6.58-13.53h4.94l-.16.88-.64.24c-.4.16-.64.24-.69.72L111.12,41.8c0,.48.19.58.53.72l.72.24-.16.88H106l.19-.88.66-.21c.37-.13.61-.27.66-.74L108.65,30l-6.58,13.64h-5l.16-.88.66-.21c.4-.13.61-.27.66-.74l1.25-12.68A.58.58,0,0,0,99.34,28.38Z" transform="translate(-20 -16.15)"/><path class="cls-2" d="M120,35.59c.5-5.2,4.11-8.7,8.39-8.7s7.24,3.18,6.71,8.44c-.53,5.44-3.93,8.7-8.38,8.7S119.45,40.82,120,35.59Zm11.17-.05c.42-4.43-.5-7.67-2.87-7.67s-4,3.16-4.38,7.43c-.42,4.48.56,7.77,2.89,7.77S130.73,39.92,131.15,35.54Z" transform="translate(-20 -16.15)"/><path class="cls-2" d="M136.61,31.4a11.31,11.31,0,0,1,.74-4.11h11.89a12,12,0,0,1-.05,4.11l-1,.16-.77-2.2c-.24-.64-.48-1-1.09-1h-1.27L143.73,41.8c-.05.48.13.61.53.72l1.27.24-.16.88h-7.24l.16-.88,1.14-.21a.75.75,0,0,0,.64-.74l1.3-13.45h-1.27c-.64,0-1,.4-1.33,1l-1.27,2.18Z" transform="translate(-20 -16.15)"/></svg>