<svg id="Layer_1" data-name="Layer 1" xmlns="http://www.w3.org/2000/svg" width="112.16" height="13.56" viewBox="0 0 112.16 13.56"><defs><style>.cls-1{fill:none;}.cls-2{fill:#fff;}</style></defs><title>buttton</title><rect class="cls-1" width="112.16" height="13.56"/><path class="cls-2" d="M16.16,2.64a27.52,27.52,0,0,1,3-.11c2.19,0,3,.71,2.7,2.77s-1.08,2.64-3.12,2.64a10.59,10.59,0,0,1-1.54-.11l-.43,3.08H15Zm2.51,3.9c1,0,1.27-.24,1.43-1.37S20,3.94,19.15,3.94H17.79l-.36,2.59Z"/><path class="cls-2" d="M25.65,4.08c-.46,0-.64.16-.7.65L24.77,6H28l-.17,1.3H24.61l-.23,1.6c-.06.44.08.61.54.61H28l0,1.36a34.94,34.94,0,0,1-3.59.12c-1.39,0-2-.79-1.82-2l.65-4.73a1.81,1.81,0,0,1,2-1.63A38,38,0,0,1,29,2.74l-.23,1.34Z"/><path class="cls-2" d="M30.09,4.35A1.83,1.83,0,0,1,32,2.61a32,32,0,0,1,3.67.14l-.22,1.33H32.65c-.54,0-.7.13-.78.7L31,10.92H29.18Z"/><path class="cls-2" d="M40.59,10.92l.68-4.75a8.53,8.53,0,0,1,.29-1.31h-.07A10.44,10.44,0,0,1,40.88,6l-3.47,5H35.53l1.16-8.28h1.76l-.66,4.69a7.55,7.55,0,0,1-.32,1.35h.08a7.4,7.4,0,0,1,.65-1.13l3.44-4.92H43.5l-1.16,8.28Z"/><path class="cls-2" d="M49.95,10.74a8.49,8.49,0,0,1-2.64.32c-2.55,0-3.41-1.25-3-4.35s1.43-4.21,4-4.21a8.54,8.54,0,0,1,2.47.29l-.24,1.35c-.78,0-1.3-.06-2.3-.06-1.2,0-1.69.42-2,2.77C46,8.9,46.17,9.48,47.37,9.48a18.31,18.31,0,0,0,2.51-.11Z"/><path class="cls-2" d="M55.61,4.13l-.95,6.79H52.83l1-6.79H51.33l.2-1.49h6.75l-.2,1.49Z"/><path class="cls-2" d="M59.33,2.64a27.52,27.52,0,0,1,3-.11c2.19,0,3,.71,2.7,2.77S64,7.94,62,7.94a10.59,10.59,0,0,1-1.54-.11L60,10.92H58.17Zm2.51,3.9c1,0,1.27-.24,1.43-1.37s-.11-1.24-.95-1.24H61l-.36,2.59Z"/><path class="cls-2" d="M67.12,8.76l-.89,2.16H64.33l3.48-7.83a.67.67,0,0,1,.66-.44h1.73a.59.59,0,0,1,.59.52l1.29,7.76H70.25L70,8.76Zm2.34-4c0-.26,0-.54-.06-.8h-.35c-.08.24-.18.53-.29.79l-1,2.52h2.06Z"/><path class="cls-2" d="M80.43,10.92l-.25,1.81H78.81l.12-1.81h-6l1.16-8.28h1.83l-1,7h2.76l1-7h1.83l-1,7h1.07Z"/><path class="cls-2" d="M86.6,10.92l.68-4.75a8.53,8.53,0,0,1,.29-1.31H87.5A10.44,10.44,0,0,1,86.88,6l-3.47,5H81.53L82.7,2.64h1.76L83.8,7.33a7.55,7.55,0,0,1-.32,1.35h.08a7.44,7.44,0,0,1,.65-1.13l3.44-4.92h1.86l-1.16,8.28Z"/><path class="cls-2" d="M92.06,7.08c-1.16-.17-1.48-1.27-1.32-2.33C91,3,92,2.54,94,2.54c1.54,0,2.3,0,3.21.11L96,10.92H94.17l.44-3.18H93.49a1,1,0,0,0-1,.74l-.94,2.43h-2l1-2.58A1.72,1.72,0,0,1,92,7.13ZM95.15,4H93.92c-.89,0-1.24.23-1.36,1.08s.08,1.32,1,1.32h1.3Z"/></svg>