<svg id="Layer_1" data-name="Layer 1" xmlns="http://www.w3.org/2000/svg" width="191.14" height="19.34" viewBox="0 0 191.14 19.34"><defs><style>.cls-1{fill:#fff;}</style></defs><title>btn_title</title><path class="cls-1" d="M11.36,15.51a16.22,16.22,0,0,1-5.24.68c-5,0-6.76-2.22-5.92-8.25C1.06,1.75,2.92,0,8,0a16.17,16.17,0,0,1,4.92.59l-.5,3.11c-1.59,0-2.63-.07-4.63-.07s-2.58.59-3.11,4.63c-.48,3.45-.27,4.31,1.66,4.31a47.84,47.84,0,0,0,4.9-.18Z" transform="translate(0)"/><path class="cls-1" d="M28.25,19.34H25.12l.16-3.42H15.46l-.79,3.42H11.52L12,15.92l.39-2.9H14a44.14,44.14,0,0,0,3.36-9.52A3.94,3.94,0,0,1,21.51.27h7.28L27,13h2.09l-.34,2.74ZM24.14,3.17h-1.2c-.86,0-1.34.32-1.59,1.36A36.78,36.78,0,0,1,18.59,13h4.17Z" transform="translate(0)"/><path class="cls-1" d="M37.41,3.51c-.82,0-1.11.25-1.22,1l-.25,1.86h5.87l-.36,2.9H35.52l-.32,2.36c-.11.7.16,1,.91,1h5.6l-.09,3.08a68.17,68.17,0,0,1-7.26.23c-2.61,0-3.79-1.63-3.49-4l1.18-8.48A3.61,3.61,0,0,1,36,.2a65.59,65.59,0,0,1,7.57.27l-.48,3Z" transform="translate(0)"/><path class="cls-1" d="M56.56,15.92H52.32L54.12,3.17h-1.2c-1,0-1.36.32-1.59,1.32a41.06,41.06,0,0,1-2.34,8c-1.54,3.13-3.63,3.88-6.26,3.45l-.14-3.31a2.74,2.74,0,0,0,2.54-1.61c.77-1.43,1.38-3.79,2.2-7.6A3.73,3.73,0,0,1,51.42.27h7.35Z" transform="translate(0)"/><path class="cls-1" d="M63.8,12.27l-1.43,3.65H57.92L64.2,1.29a1.57,1.57,0,0,1,1.52-1h3.9A1.35,1.35,0,0,1,71,1.45L73.2,15.92H68.94l-.36-3.65Zm4-7.21a13.22,13.22,0,0,1-.07-1.63h-.66A15.42,15.42,0,0,1,66.63,5L65,9h3.2Z" transform="translate(0)"/><path class="cls-1" d="M82.52,3.56,80.78,15.92H76.51L78.26,3.56H73.79L74.25.27h13.2L87,3.56Z" transform="translate(0)"/><path class="cls-1" d="M94.31,5.85c4.47,0,6,1.27,5.4,5.28s-1.86,5-5.74,5c-3.27,0-5,0-7-.18L89.16.27h4.26l-.77,5.58ZM93.15,13c1.61,0,2.06-.14,2.31-2.2.25-1.77.2-2.27-1.47-2.27H92.27L91.64,13Z" transform="translate(0)"/><path class="cls-1" d="M117.59,15.51a16.22,16.22,0,0,1-5.24.68c-5,0-6.76-2.22-5.92-8.25C107.3,1.75,109.16,0,114.19,0a16.18,16.18,0,0,1,4.92.59l-.5,3.11c-1.59,0-2.63-.07-4.63-.07s-2.58.59-3.11,4.63c-.48,3.45-.27,4.31,1.66,4.31a47.81,47.81,0,0,0,4.9-.18Z" transform="translate(0)"/><path class="cls-1" d="M128.66,3.56l-1.75,12.36h-4.26l1.75-12.36h-4.47l.45-3.29h13.2l-.45,3.29Z" transform="translate(0)"/><path class="cls-1" d="M136.23,12.27l-1.43,3.65h-4.44l6.28-14.63a1.57,1.57,0,0,1,1.52-1h3.9a1.35,1.35,0,0,1,1.36,1.18l2.22,14.47h-4.26L141,12.27Zm4-7.21a13.22,13.22,0,0,1-.07-1.63h-.66A15.3,15.3,0,0,1,139.06,5l-1.59,4h3.2Z" transform="translate(0)"/><path class="cls-1" d="M149.13.27C151,.11,152.6.09,155.2.09c4,0,5.67,1,5.24,4.24-.29,2.18-1.09,3.24-3.2,3.42l0,.11c2.43.2,3.17,1.77,2.81,4.31-.45,3.15-2.09,3.92-5.87,3.92-3.36,0-5.12,0-7.23-.18ZM153.37,13c1.7,0,2.18-.36,2.43-2s-.11-1.86-1.56-1.86H152L151.49,13Zm1-6.58c1.41,0,1.84-.34,2.06-1.86.16-1.16-.16-1.45-1.32-1.45l-2.2,0-.45,3.33Z" transform="translate(0)"/><path class="cls-1" d="M170.71,7.87c3,.48,3.11,1.66,4.13,8h-4.35c-.79-5.67-.73-6.69-2.9-6.69h-.91a7,7,0,0,1,0,1.54l-.73,5.15h-4.26L163.86.27h4.26l-.61,4.24a11.44,11.44,0,0,1-.41,1.86h.73c2.09,0,2.65-1.43,4.42-6.1h4.42c-2.34,5.62-2.7,7.05-5.94,7.46Z" transform="translate(0)"/><path class="cls-1" d="M185.95,11.84c-1.22,2.77-2.29,4.15-4.56,4.35a19.56,19.56,0,0,1-4.44-.34l.63-2.92c2.56.09,3.33.07,4-1l.18-.36H181c-1.32,0-1.88-.79-2-2l-1.7-9.3h4.26l1,7.82c0,.25.14.34.34.34h.36L186.65.27h4.49Z" transform="translate(0)"/></svg>