<svg id="Layer_1" data-name="Layer 1" xmlns="http://www.w3.org/2000/svg" xmlns:xlink="http://www.w3.org/1999/xlink" width="796" height="220" viewBox="0 0 796 220"><defs><style>.cls-1{fill:#06630d;}.cls-2{fill:url(#linear-gradient);}.cls-3{fill:#fff;}</style><linearGradient id="linear-gradient" y1="105" x2="796" y2="105" gradientUnits="userSpaceOnUse"><stop offset="0" stop-color="#0e961a"/><stop offset="0.5" stop-color="#39b54a"/><stop offset="1" stop-color="#199925"/></linearGradient></defs><title>button</title><rect class="cls-1" width="796" height="220" rx="27" ry="27"/><rect class="cls-2" width="796" height="210" rx="27" ry="27"/><path class="cls-3" d="M233.42,158H218.92l.74-15.88H174.13L170.45,158H155.84L158,142.17l1.79-13.46h7.46c7.57-14.82,11.56-28.7,15.56-44.16,2.52-9.78,9-14.93,19.34-14.93h33.75l-8.31,59.08h9.67l-1.58,12.72Zm-19-75h-5.57c-4,0-6.2,1.47-7.36,6.31-3.15,13.77-6.62,27-12.83,39.32H208Z"/><path class="cls-3" d="M263.91,125.24l-6.62,16.93H236.68L265.8,74.36a7.27,7.27,0,0,1,7-4.73h18.08a6.28,6.28,0,0,1,6.31,5.47l10.3,67.08H287.77l-1.68-16.93Zm18.71-33.43a61.68,61.68,0,0,1-.32-7.57h-3a71,71,0,0,1-2.21,7.46l-7.36,18.61h14.82Z"/><path class="cls-3" d="M324.25,124.3c4.94,0,6.83,2,6.1,7l-.95,6.73a48.88,48.88,0,0,1-8.62,20.71l-8-2.94a97.41,97.41,0,0,0,4.31-14c-4.1.1-5.36-2-4.94-5.89l.74-5.15c.84-5,2.94-6.52,7.78-6.52Z"/><path class="cls-3" d="M424.33,142.17H404.78l-9.25-31.54L377,142.17H355.79l23.55-37.11L367.77,69.63H387l8.41,29.44h.32l17.35-29.44h20.29l-21.87,35.43Z"/><path class="cls-3" d="M496.24,106.64c-4,29.44-13.88,37-36.17,37-23.76,0-32.28-8.94-28.28-38.48,4-28.91,13.46-37,35.85-37C490.57,68.16,500.24,77,496.24,106.64Zm-43.84,0c-2.63,17.66-.84,21.87,8.1,21.87,9.36,0,12.2-4.41,15-23.34,2.63-17.87.74-21.87-8.2-21.87C458.08,83.3,455.35,87.71,452.4,106.64Z"/><path class="cls-3" d="M559.32,142.17H539.56l4-28.7c-7,3.26-15.35,5.15-20.29,5.15-14,0-19.66-6.1-18-18.71l4.21-30.28h19.87l-3.78,26.81c-.84,4.84,1.26,5.89,5.68,5.89a32.84,32.84,0,0,0,14.4-3.15l4.1-29.54h19.77Z"/><path class="cls-3" d="M616.09,123.25c-5.68,12.83-10.62,19.24-21.13,20.19-6.2.63-15.77-.74-20.61-1.58l2.94-13.56c11.88.42,15.45.32,18.4-4.84l.84-1.68h-3.36c-6.1,0-8.73-3.68-9.46-9l-7.89-43.1h19.77l4.52,36.27c.11,1.16.63,1.58,1.58,1.58h1.68l16-37.85h20.82Z"/></svg>