<svg id="Layer_1" data-name="Layer 1" xmlns="http://www.w3.org/2000/svg" width="786" height="220" viewBox="0 0 786 220"><defs><style>.cls-1{fill:#931919;}.cls-2{fill:#d42b28;}.cls-3{fill:#fff;}</style></defs><title>button</title><rect class="cls-1" width="786" height="220" rx="37" ry="37"/><path class="cls-2" d="M37,0H749c20.43,0,37,15.81,37,35.32V174.68c0,19.51-16.57,35.32-37,35.32H37c-20.43,0-37-15.81-37-35.32V35.32C0,15.81,16.57,0,37,0Z"/><path class="cls-3" d="M90.73,75.24c7.63-.8,12.77-.89,23.68-.89,17.56,0,23.77,5.06,21.55,21.11-2.13,15.87-8.07,19.78-23.68,19.78a82.17,82.17,0,0,1-10.55-.71l-3,21.91H82.13ZM111,103.09c5.76,0,7.45-1.15,8.51-8.87.89-6-.35-7.72-5.59-7.72l-8.25.09-2.31,16.5Z"/><path class="cls-3" d="M165,87.92c-3.19,0-4.35,1-4.79,4.08l-1,7.27h23l-1.42,11.35H157.59l-1.24,9.22c-.44,2.75.62,3.9,3.55,3.9H181.8l-.35,12.06c-8.16,1-19.24.89-28.38.89-10.2,0-14.81-6.38-13.66-15.7L144,87.83C145.18,79.94,150.41,75,159.28,75c10.29,0,21.46,0,29.62,1.06L187,87.92Z"/><path class="cls-3" d="M196,88.19C197.15,79.85,202.91,75,210.27,75c9.67,0,20.93,0,28.56,1.15l-2,11.79H217.19c-3.37,0-4.61.89-5.05,4.26l-6.3,44.25H189.25Z"/><path class="cls-3" d="M274.12,136.43l4.43-30.86A72.41,72.41,0,0,1,281,95.46h-.62a59.72,59.72,0,0,1-4.79,8.78l-22.08,32.19H237l8.6-61.19h16.05l-4.26,29.89A59.09,59.09,0,0,1,254.7,116h.71a55.87,55.87,0,0,1,5.05-9.22l21.91-31.57h16.14l-8.6,61.19Z"/><path class="cls-3" d="M347,134.84c-6.3,2-11.79,2.66-20.49,2.66-19.69,0-26.43-8.69-23.15-32.28,3.37-24.21,10.64-31,30.33-31,8.87,0,13.57.71,19.24,2.31l-2,12.15c-6.21-.18-10.29-.27-18.09-.27-7.45,0-10.11,2.31-12.15,18.09-1.86,13.48-1.06,16.85,6.47,16.85a186.74,186.74,0,0,0,19.16-.71Z"/><path class="cls-3" d="M390.3,88.1l-6.83,48.33H366.79l6.83-48.33H356.15l1.77-12.86h51.61L407.77,88.1Z"/><path class="cls-3" d="M416.28,75.24c7.63-.8,12.77-.89,23.68-.89,17.56,0,23.77,5.06,21.55,21.11-2.13,15.87-8.07,19.78-23.68,19.78a82.21,82.21,0,0,1-10.55-.71l-3,21.91H407.68Zm20.31,27.85c5.77,0,7.45-1.15,8.51-8.87.89-6-.35-7.72-5.59-7.72l-8.25.09L429,103.09Z"/><path class="cls-3" d="M478,122.15l-5.59,14.28H455l24.57-57.2a6.13,6.13,0,0,1,5.94-4h15.25a5.3,5.3,0,0,1,5.32,4.61l8.69,56.58H498.13l-1.42-14.28ZM493.79,94a51.69,51.69,0,0,1-.27-6.39H491a60.21,60.21,0,0,1-1.86,6.3l-6.21,15.7h12.5Z"/><path class="cls-3" d="M576.35,149.82H564.11l.71-13.39H519.95l8.6-61.19h16.67l-7,49.84H555l7-49.84h16.67l-7,49.84h8.16l-1.6,11.35Z"/><path class="cls-3" d="M622.38,136.43l4.43-30.86a72.55,72.55,0,0,1,2.39-10.11h-.62a59.54,59.54,0,0,1-4.79,8.78l-22.08,32.19H585.22l8.6-61.19h16.05l-4.26,29.89A59,59,0,0,1,603,116h.71a55.9,55.9,0,0,1,5.05-9.22l21.91-31.57h16.14l-8.6,61.19Z"/><path class="cls-3" d="M696.61,136.43H679.84l3.28-22.88h-5.94c-3.72,0-5.59,1.33-6.92,5l-6.56,17.91H645.61l7.54-19.07c2.75-7.09,7.8-8.78,11.53-9.13l.09-.44c-8.87-1.24-11.35-9-10.2-17.12,1.86-13.21,9.93-16.32,25.36-16.32a240.47,240.47,0,0,1,25.28.89ZM686.85,86.5H679.4c-5.5,0-7.45,1.33-8.25,6.74-1,6.21.53,8.16,6,8.16h7.63Z"/></svg>