<svg id="Layer_1" data-name="Layer 1" xmlns="http://www.w3.org/2000/svg" width="786" height="220" viewBox="0 0 786 220"><defs><style>.cls-1{fill:#d42b28;}.cls-2{fill:#fff;}</style></defs><title>logo</title><rect class="cls-1" width="786" height="220" rx="37" ry="37"/><path class="cls-2" d="M208.74,109a33.1,33.1,0,0,1-2.1,6.11,24,24,0,0,1-3.79,5.86,27,27,0,0,1-5.76,4.93,25.94,25.94,0,0,1-7.87,3.3l9.2-39.64a14.79,14.79,0,0,1,6.51,3.12,12.64,12.64,0,0,1,3.43,4.8,15.07,15.07,0,0,1,1,5.74,26.23,26.23,0,0,1-.66,5.79m-42.86,20.32A12.76,12.76,0,0,1,160,126.7a10.39,10.39,0,0,1-3.12-4.55,16.72,16.72,0,0,1-.86-6,34.89,34.89,0,0,1,.95-7,28.92,28.92,0,0,1,5.86-11.53,27,27,0,0,1,5.38-4.92,19.46,19.46,0,0,1,6.87-3Zm61.85-45.74q-7.62-9.6-24.87-12.1l.58-2.49a3.23,3.23,0,0,0,0-2.06q-.3-.56-2.42-.56h-17.7A3.18,3.18,0,0,0,179.88,69l-.6,2.62a62.19,62.19,0,0,0-16.4,4.61,54.47,54.47,0,0,0-13.54,8.41,49.86,49.86,0,0,0-10,11.53A45.11,45.11,0,0,0,133.59,110q-3.7,16,3.36,25.55t24.79,11.59l-.89,3.86q-.61,2.62,2.26,2.62h17.7a4.17,4.17,0,0,0,2.69-.56,4.34,4.34,0,0,0,.91-2.06l.87-3.74a62.05,62.05,0,0,0,16.6-4.11,52.68,52.68,0,0,0,13.64-8,47.63,47.63,0,0,0,10.14-11.47,46.73,46.73,0,0,0,6-14.52q3.7-16-3.92-25.56"/><path class="cls-2" d="M414.41,66.94q-.31-.56-2.42-.56h-17.7A3.17,3.17,0,0,0,390.8,69L384,98.41H356.31L363.13,69a3.27,3.27,0,0,0,0-2.06c-.21-.37-1-.56-2.43-.56H343A3.17,3.17,0,0,0,339.57,69l-19,82q-.6,2.62,2.26,2.62h17.7a4.17,4.17,0,0,0,2.68-.56,4.34,4.34,0,0,0,.92-2.06l7.63-32.91h27.67L371.77,151q-.61,2.62,2.26,2.62h17.7a4.17,4.17,0,0,0,2.68-.56,4.32,4.32,0,0,0,.91-2.06l19-82a3.25,3.25,0,0,0,0-2.06"/><path class="cls-2" d="M570.56,66.39H533.79a31.83,31.83,0,0,0-11.68,2,27.28,27.28,0,0,0-8.65,5.3,27.78,27.78,0,0,0-5.82,7.6,37.17,37.17,0,0,0-3.28,8.79L495.11,130a36.21,36.21,0,0,0-.94,8.35,15.73,15.73,0,0,0,1.9,7.67,13.69,13.69,0,0,0,6.07,5.55q4.18,2.12,11.66,2.12h38.52q2.37,0,3-2.87l3.27-14.09c.33-1.41.38-2.26.16-2.55s-.83-.44-1.83-.44H525.28a21.47,21.47,0,0,1-3-.18,4.27,4.27,0,0,1-2.16-.87,3.25,3.25,0,0,1-1.08-2.05,9.75,9.75,0,0,1,.3-3.74l2.17-9.35H555q2.37,0,3-2.87l3-13c.33-1.42.39-2.29.17-2.62s-.82-.5-1.81-.5H526l1.21-5.23a14.84,14.84,0,0,1,.83-2.49,7.35,7.35,0,0,1,1.52-2.24,7.76,7.76,0,0,1,2.64-1.69,11,11,0,0,1,4.15-.68H566a3,3,0,0,0,2-.56,4.27,4.27,0,0,0,1-2.18l3.27-14.09c.33-1.41.38-2.26.16-2.55s-.83-.43-1.83-.43"/><path class="cls-2" d="M653.46,66.82a3,3,0,0,0-2-.43H585.81a4.08,4.08,0,0,0-2.16.43,4.45,4.45,0,0,0-1.15,2.55l-3.24,14q-.67,2.87,1.95,2.87H602L587,151q-.6,2.62,2.26,2.62H607a4.18,4.18,0,0,0,2.68-.56,4.34,4.34,0,0,0,.91-2.06l15-64.82h21.32c1.75,0,2.84-1,3.28-2.87l3.24-14c.33-1.41.33-2.26,0-2.56"/><path class="cls-2" d="M456.1,116.37q4.09,0,5.73,2.31a7.08,7.08,0,0,1,.8,5.92,13.63,13.63,0,0,1-1,2.87,10.31,10.31,0,0,1-2,2.8,11,11,0,0,1-3.11,2.18,9.82,9.82,0,0,1-4.29.87H436.92l3.93-17Zm37.13-49.55c-.22-.29-.83-.43-1.83-.43H437q-5.14,0-7.12,2.06A13,13,0,0,0,427,74.61l-16.43,70.8q-1,4.36,0,6.29t6.16,1.94h33a37.5,37.5,0,0,0,12.52-2.12,39.85,39.85,0,0,0,11-5.92,38.13,38.13,0,0,0,8.49-8.91,32.53,32.53,0,0,0,4.88-11.09q.46-2,.89-4.92a27.05,27.05,0,0,0,.18-6.11,22.32,22.32,0,0,0-1.51-6.36,14.53,14.53,0,0,0-4.26-5.74,22.79,22.79,0,0,0-8.12-4.11,45.37,45.37,0,0,0-12.94-1.56H445.39q.35-1.49.64-2.49c.19-.66.37-1.35.54-2.05l.56-2.43c.21-.91.5-2.12.84-3.62h38.84a3,3,0,0,0,2-.56,4.25,4.25,0,0,0,1-2.18l3.27-14.09c.33-1.41.38-2.26.16-2.56"/><path class="cls-2" d="M296.14,100.72A74.41,74.41,0,0,1,294.8,110a66.3,66.3,0,0,1-2.8,9.1,34.22,34.22,0,0,1-4.08,7.67,19.14,19.14,0,0,1-5.58,5.24,13.84,13.84,0,0,1-7.3,1.93,11.38,11.38,0,0,1-6.7-1.75,9.23,9.23,0,0,1-3.47-4.92,21.08,21.08,0,0,1-.68-7.79,66.67,66.67,0,0,1,1.65-10.35,50.32,50.32,0,0,1,2.93-8.85,34.2,34.2,0,0,1,4.34-7.42,20.16,20.16,0,0,1,5.66-5.05,13.17,13.17,0,0,1,6.79-1.87,10.61,10.61,0,0,1,6.78,1.93A9.61,9.61,0,0,1,295.62,93a23,23,0,0,1,.53,7.67m25.41-9.35a29.92,29.92,0,0,0-4-14.15,23.47,23.47,0,0,0-10.25-9Q300.63,65,290.53,65a48.41,48.41,0,0,0-17.81,3.18,44.71,44.71,0,0,0-14.39,9.1,55.26,55.26,0,0,0-10.79,14.27,74.42,74.42,0,0,0-6.86,18.57,70.28,70.28,0,0,0-2.06,18.82,30.26,30.26,0,0,0,3.76,14.15,21.74,21.74,0,0,0,10.1,8.85q6.71,3.05,16.81,3.06a53.73,53.73,0,0,0,18.92-3.12,42.23,42.23,0,0,0,14.49-9A50.89,50.89,0,0,0,313,128.7a84.62,84.62,0,0,0,6.62-18.82,66.7,66.7,0,0,0,1.92-18.51"/></svg>