<?xml version="1.0" encoding="utf-8"?>
<!-- Generator: Adobe Illustrator 16.0.0, SVG Export Plug-In . SVG Version: 6.00 Build 0)  -->
<!DOCTYPE svg PUBLIC "-//W3C//DTD SVG 1.1//EN" "http://www.w3.org/Graphics/SVG/1.1/DTD/svg11.dtd">
<svg version="1.1" id="Capa_1" xmlns="http://www.w3.org/2000/svg" xmlns:xlink="http://www.w3.org/1999/xlink" x="0px" y="0px"
	 width="13px" height="13px" viewBox="41.469 41.469 13 13" enable-background="new 41.469 41.469 13 13" xml:space="preserve">
<g>
	<path fill="#FFFFFF" d="M49.983,47.969l4.407-4.409c0.105-0.106,0.105-0.277,0-0.383l-1.629-1.629
		c-0.051-0.051-0.119-0.079-0.191-0.079c-0.071,0-0.141,0.028-0.191,0.079l-4.409,4.409l-4.409-4.409
		c-0.102-0.102-0.282-0.102-0.383,0l-1.629,1.629c-0.105,0.106-0.105,0.277,0,0.383l4.409,4.409l-4.409,4.409
		c-0.105,0.105-0.105,0.276,0,0.382l1.629,1.631c0.051,0.051,0.12,0.078,0.192,0.078c0.071,0,0.141-0.027,0.191-0.078l4.409-4.409
		l4.409,4.409c0.051,0.051,0.12,0.078,0.191,0.078c0.072,0,0.141-0.027,0.191-0.078l1.629-1.631c0.105-0.105,0.105-0.276,0-0.382
		L49.983,47.969z"/>
</g>
</svg>
